Coordinates
version=1
nRows=29
nColumns=22
inDegrees=yes

Units are S.I. units (second, meters, Newtons, ...)
If the header above contains a line with 'inDegrees', this indicates whether rotational values are in degrees (yes) or radians (no).

endheader
time	pelvis_tilt	pelvis_list	pelvis_rotation	pelvis_tx	pelvis_ty	pelvis_tz	hip_flexion_r	hip_adduction_r	hip_rotation_r	knee_angle_r	ankle_angle_r	subtalar_angle_r	hip_flexion_l	hip_adduction_l	hip_rotation_l	knee_angle_l	ankle_angle_l	subtalar_angle_l	lumbar_extension	lumbar_bending	lumbar_rotation
      1.36000000	     -4.36565616	      0.35341258	      2.02079616	     -0.95566334	      0.92929441	     -0.70819490	      4.68411432	     -3.96359293	    -13.14919991	    -19.86461972	     17.34882682	      1.58975577	      2.99978548	      2.50905417	     -5.83705613	    -14.92633857	     15.90875113	     -4.99783709	     -7.17460067	     -4.77101715	     -5.54832847
      1.37000000	     -4.30208735	      0.54696278	      2.06458256	     -0.95473385	      0.92891467	     -0.70902433	      5.11577111	     -4.32849181	    -12.97447448	    -20.96181440	     17.52681923	      1.63814064	      2.91746527	      2.76567881	     -5.77846248	    -15.03128708	     15.97862142	     -4.99077539	     -7.42501184	     -4.99466773	     -5.65712172
      1.38000000	     -4.22661509	      0.73705392	      2.09842150	     -0.95377635	      0.92854135	     -0.70982916	      5.58442846	     -4.69401905	    -12.77656641	    -22.14951261	     17.66139861	      1.66679381	      2.81347134	      3.01599013	     -5.74430920	    -15.12405041	     16.07284138	     -4.97899059	     -7.69208652	     -5.21232096	     -5.77598797
      1.39000000	     -4.17854617	      0.92107903	      2.12289179	     -0.95285687	      0.92812261	     -0.71061667	      6.14652280	     -5.05735934	    -12.53355097	    -23.44181714	     17.71888634	      1.68664358	      2.75267826	      3.25895190	     -5.72793651	    -15.23902123	     16.17602651	     -4.99014208	     -7.93731966	     -5.42014206	     -5.90265886
      1.40000000	     -4.07487396	      1.10798018	      2.13208685	     -0.95190385	      0.92779774	     -0.71138557	      6.69839039	     -5.42597467	    -12.27080506	    -24.81930565	     17.76155796	      1.68278714	      2.60633207	      3.50638356	     -5.70366059	    -15.31247864	     16.25207390	     -4.98972017	     -8.25399927	     -5.62643782	     -6.01385442
      1.41000000	     -4.00589421	      1.28491585	      2.12576128	     -0.95100254	      0.92743458	     -0.71212357	      7.36337791	     -5.78597201	    -11.95612733	    -26.31233330	     17.70501419	      1.67720349	      2.51045044	      3.74228746	     -5.70170523	    -15.40573485	     16.32557342	     -5.01615247	     -8.53919689	     -5.82019248	     -6.13343561
      1.42000000	     -3.93848611	      1.44394944	      2.10535707	     -0.95012199	      0.92709038	     -0.71283648	      8.09748731	     -6.12722298	    -11.60448124	    -27.90650914	     17.55072268	      1.66995905	      2.41897824	      3.95805955	     -5.71359103	    -15.50194619	     16.40297799	     -5.05440350	     -8.82928900	     -5.98904680	     -6.25343311
      1.43000000	     -3.90341234	      1.57820802	      2.07368453	     -0.94927976	      0.92671160	     -0.71351742	      8.94030256	     -6.43881683	    -11.20208837	    -29.60811114	     17.28231616	      1.67963803	      2.38290771	      4.14373228	     -5.75916576	    -15.63203503	     16.51256337	     -5.11736174	     -9.08788414	     -6.12504753	     -6.39771670
      1.44000000	     -3.82205637	      1.70771055	      2.00956790	     -0.94838632	      0.92643572	     -0.71413689	      9.79376219	     -6.73675616	    -10.74897450	    -31.39394856	     16.91065115	      1.67280819	      2.26469035	      4.32643723	     -5.79327751	    -15.70814583	     16.56303631	     -5.15197541	     -9.39985711	     -6.25460886	     -6.49159398
      1.45000000	     -3.79367426	      1.80826629	      1.94737019	     -0.94751862	      0.92607513	     -0.71472395	     10.77339952	     -6.99588016	    -10.25159775	    -33.27684763	     16.41454889	      1.69507994	      2.23898241	      4.47003417	     -5.87696409	    -15.84602731	     16.68653482	     -5.20247890	     -9.65298781	     -6.34741664	     -6.63421073
      1.46000000	     -3.74042751	      1.89828568	      1.86263851	     -0.94657411	      0.92576910	     -0.71523489	     11.77912630	     -7.22697372	     -9.70656985	    -35.22849870	     15.78857086	      1.69078724	      2.16559044	      4.60034375	     -5.95830391	    -15.95476618	     16.77497220	     -5.23426618	     -9.92895260	     -6.43094180	     -6.75507350
      1.47000000	     -3.69895220	      1.97267515	      1.78050068	     -0.94560543	      0.92544020	     -0.71572749	     12.84689256	     -7.42663294	     -9.12787636	    -37.24099236	     15.04249121	      1.67016887	      2.11675597	      4.71060331	     -6.05068948	    -16.08723368	     16.88375815	     -5.25838634	    -10.19374276	     -6.48660104	     -6.89093483
      1.48000000	     -3.65456986	      2.03338227	      1.69616916	     -0.94456116	      0.92510934	     -0.71615919	     13.94854126	     -7.59258956	     -8.53245465	    -39.29233208	     14.17226006	      1.60630609	      2.05824070	      4.80100187	     -6.14820176	    -16.21596447	     16.99721865	     -5.27249943	    -10.45541316	     -6.52693804	     -7.03981747
      1.49000000	     -3.60856981	      2.08072271	      1.61188381	     -0.94344110	      0.92477406	     -0.71653749	     15.07510722	     -7.72290493	     -7.92854546	    -41.36097066	     13.20251484	      1.48290374	      1.99313815	      4.87271941	     -6.24740921	    -16.34455926	     17.11446943	     -5.27872242	    -10.71337655	     -6.55007650	     -7.20581621
      1.50000000	     -3.56308225	      2.11690104	      1.53053660	     -0.94222741	      0.92442138	     -0.71684848	     16.21824132	     -7.82439926	     -7.34525907	    -43.42611845	     12.16504937	      1.28768856	      1.92513747	      4.92638992	     -6.34194417	    -16.48052556	     17.25058410	     -5.27908234	    -10.96139443	     -6.56181964	     -7.38166882
      1.51000000	     -3.48688303	      2.13729856	      1.44675287	     -0.94088464	      0.92413641	     -0.71709085	     17.32048398	     -7.88596293	     -6.78031498	    -45.43746838	     11.06318403	      1.01134896	      1.78712825	      4.96144489	     -6.41968074	    -16.56072317	     17.35285445	     -5.27450738	    -11.23826601	     -6.55380054	     -7.55052206
      1.52000000	     -3.42226105	      2.16183990	      1.35127661	     -0.93941395	      0.92380717	     -0.71724115	     18.43581509	     -7.93491923	     -6.24021387	    -47.40157397	     10.02147990	      0.66696942	      1.65531674	      4.99405502	     -6.52275341	    -16.64874346	     17.48545524	     -5.26852255	    -11.48549715	     -6.55152051	     -7.74854567
      1.53000000	     -3.38361151	      2.19668215	      1.25115571	     -0.93780313	      0.92340918	     -0.71731506	     19.56921085	     -7.99435934	     -5.76618425	    -49.29022096	      9.11246281	      0.23896730	      1.54463241	      5.02868878	     -6.66950346	    -16.74531177	     17.66150117	     -5.26655238	    -11.68582171	     -6.56416202	     -7.96885045
      1.54000000	     -3.28835347	      2.20519063	      1.12950440	     -0.93600171	      0.92315982	     -0.71728163	     20.59434548	     -8.00604236	     -5.33755490	    -51.01217215	      8.26554862	     -0.14469083	      1.30665575	      5.03990849	     -6.76229697	    -16.73929137	     17.74584756	     -5.26729066	    -11.93728331	     -6.54846918	     -8.15442915
      1.55000000	     -3.25507735	      2.23006706	      1.01295636	     -0.93410737	      0.92277842	     -0.71720581	     21.66671734	     -8.05203800	     -5.00469117	    -52.60145151	      7.70085387	     -0.55363635	      1.15031533	      5.05963272	     -6.90904502	    -16.77732461	     17.90121065	     -5.27801120	    -12.10624741	     -6.54973294	     -8.37961378
      1.56000000	     -3.19760645	      2.22652724	      0.88236334	     -0.93207132	      0.92249511	     -0.71705531	     22.65705767	     -8.06272789	     -4.74140570	    -53.96134767	      7.30433153	     -0.80279712	      0.91903944	      5.05489435	     -7.00864149	    -16.73938946	     17.98008147	     -5.29003024	    -12.29515027	     -6.51821440	     -8.57880795
      1.57000000	     -3.17636962	      2.21403368	      0.75528419	     -0.92994220	      0.92216539	     -0.71687350	     23.63901977	     -8.08023349	     -4.57984403	    -55.09017128	      7.17646513	     -0.92919134	      0.72650307	      5.03847337	     -7.11702035	    -16.71438951	     18.09145084	     -5.30254824	    -12.43566128	     -6.47097337	     -8.79756467
      1.58000000	     -3.18162482	      2.17476758	      0.63367733	     -0.92771792	      0.92183498	     -0.71665283	     24.58740157	     -8.07734202	     -4.51284874	    -55.94256600	      7.27374227	     -0.90369272	      0.55584475	      4.99085348	     -7.22833223	    -16.68697929	     18.20259735	     -5.30771105	    -12.54217134	     -6.38965152	     -9.01757757
      1.59000000	     -3.16246595	      2.09990241	      0.50920465	     -0.92535396	      0.92159087	     -0.71638576	     25.43301236	     -8.04221066	     -4.54090417	    -56.48706261	      7.54550743	     -0.78091122	      0.33583809	      4.90497850	     -7.33019923	    -16.63319379	     18.35822659	     -5.28401253	    -12.67154995	     -6.26394223	     -9.23305128
      1.60000000	     -3.25054635	      2.00969692	      0.37153331	     -0.92294241	      0.92121845	     -0.71603914	     26.35773192	     -7.97815607	     -4.61019302	    -56.76258755	      7.84619492	     -0.44307560	      0.25216841	      4.79345450	     -7.49006470	    -16.62099954	     18.45386159	     -5.22304606	    -12.66986768	     -6.12381006	     -9.43540715
      1.61000000	     -3.30920366	      1.87470166	      0.22364408	     -0.92039095	      0.92095000	     -0.71559672	     27.17201646	     -7.84466751	     -4.73025506	    -56.72522526	      8.20338747	     -0.00397308	      0.10745415	      4.63315822	     -7.62174990	    -16.57091368	     18.59593949	     -5.11791536	    -12.69986171	     -5.93503457	     -9.62330681
      1.62000000	     -3.37332864	      1.71138448	      0.06496886	     -0.91769968	      0.92071166	     -0.71507672	     27.92654260	     -7.66892529	     -4.90618771	    -56.40555197	      8.55422117	      0.51586647	     -0.04790339	      4.43841248	     -7.76738260	    -16.50782383	     18.73766716	     -5.00263534	    -12.71749695	     -5.71607199	     -9.78139673
      1.63000000	     -3.42932075	      1.52037808	     -0.10085610	     -0.91487240	      0.92050163	     -0.71448142	     28.60704705	     -7.45139750	     -5.13607314	    -55.82349773	      8.90237023	      1.03026559	     -0.21648680	      4.20683631	     -7.93978742	    -16.45747971	     18.89715942	     -4.92311241	    -12.74148338	     -5.46520555	     -9.92712666
      1.64000000	     -3.50492730	      1.30914734	     -0.28960325	     -0.91193523	      0.92030241	     -0.71376229	     29.25266625	     -7.16580095	     -5.34400032	    -54.99217682	      9.10876180	      1.74857744	     -0.39714948	      3.95787275	     -8.05962079	    -16.36019332	     19.00043510	     -4.84192482	    -12.74192300	     -5.20059653	    -10.04476683
